<?xml version="1.0" encoding="UTF-8"?>
<svg version="1.1" xmlns="http://www.w3.org/2000/svg" width="77" height="78">
<path d="M0 0 C25.41 0 50.82 0 77 0 C77 25.74 77 51.48 77 78 C51.59 78 26.18 78 0 78 C0 52.26 0 26.52 0 0 Z " fill="#06ABD8" transform="translate(0,0)"/>
<path d="M0 0 C1.68698082 0.61344757 3.34827188 1.29713697 5 2 C7.98911823 3.0331516 10.99385771 4.01760056 14 5 C14.08152344 7.54232342 14.14073716 10.08199202 14.1875 12.625 C14.21263672 13.33785156 14.23777344 14.05070312 14.26367188 14.78515625 C14.32999164 19.60439231 13.69318887 22.84113011 11 27 C7.55060457 30.29192303 4.17717881 31.8967387 -0.5625 32.3125 C-5.40541554 30.4633868 -8.17837977 27.29619578 -11 23 C-12.39246196 19.35757125 -12.0982036 15.60598883 -12.0625 11.75 C-12.05347656 10.48671875 -12.04445313 9.2234375 -12.03515625 7.921875 C-12.02355469 6.95765625 -12.01195313 5.9934375 -12 5 C-11.30132813 4.72285156 -10.60265625 4.44570313 -9.8828125 4.16015625 C-8.97273438 3.79792969 -8.06265625 3.43570312 -7.125 3.0625 C-6.22007813 2.70285156 -5.31515625 2.34320312 -4.3828125 1.97265625 C-2.03862333 1.05098738 -2.03862333 1.05098738 0 0 Z " fill="#03B5DA" transform="translate(38,22)"/>
<path d="M0 0 C6.27 0 12.54 0 19 0 C18.01 0.66 17.02 1.32 16 2 C9.67577643 6.27348162 4.49736746 10.50789763 2 18 C1.87871487 20.86747449 1.81182028 23.70983606 1.796875 26.578125 C1.79117493 27.42292419 1.78547485 28.26772339 1.77960205 29.13812256 C1.770157 30.92686717 1.76362003 32.71562914 1.75976562 34.50439453 C1.75008572 37.22589984 1.71906878 39.94664147 1.6875 42.66796875 C1.68096694 44.4088497 1.67571766 46.14973603 1.671875 47.890625 C1.6595282 48.69816223 1.6471814 49.50569946 1.63446045 50.33770752 C1.66058131 57.04480749 3.26214338 62.45061666 7.6875 67.6875 C8.34298828 68.49767578 8.34298828 68.49767578 9.01171875 69.32421875 C14.89442991 74.28233877 20.71095814 75.60674559 28.25 75.53125 C29.10754883 75.5350769 29.96509766 75.53890381 30.84863281 75.54284668 C32.65040266 75.54555229 34.45221271 75.5382864 36.25390625 75.52148438 C38.9930884 75.50005407 41.72964827 75.52133101 44.46875 75.546875 C46.22917239 75.54423148 47.98959316 75.53910601 49.75 75.53125 C50.55856445 75.53934692 51.36712891 75.54744385 52.20019531 75.55578613 C58.93524603 75.44612785 64.11781207 73.48048926 69.2421875 69.0703125 C72.48584568 65.2058585 74.86472175 62.0456811 76 57 C76.33 57 76.66 57 77 57 C77 63.93 77 70.86 77 78 C51.59 78 26.18 78 0 78 C0 52.26 0 26.52 0 0 Z " fill="#FAFCFE" transform="translate(0,0)"/>
<path d="M0 0 C3.09732367 0.90338607 5.25746796 2.20272437 8 3.875 C10.32442847 4.57208047 12.65729352 5.24205825 15 5.875 C15.11681812 9.41638618 15.187455 12.9572724 15.25 16.5 C15.30027344 17.99853516 15.30027344 17.99853516 15.3515625 19.52734375 C15.43308191 25.68205888 15.1192452 29.19950636 11 33.875 C7.30650737 37.19914337 4.18803394 39.52690369 -0.75 40.3125 C-6.02698198 39.60213704 -10.05424806 37.06516906 -13.5859375 33.08984375 C-17.91913639 27.19118283 -18.18203323 22.80450334 -18.1875 15.8125 C-18.19974609 14.98427734 -18.21199219 14.15605469 -18.22460938 13.30273438 C-18.22654297 12.51060547 -18.22847656 11.71847656 -18.23046875 10.90234375 C-18.23457764 10.17781006 -18.23868652 9.45327637 -18.24291992 8.70678711 C-18 6.875 -18 6.875 -16 4.875 C-14.01021813 4.38570938 -12.01928481 3.89991679 -10.01953125 3.453125 C-7.79448468 2.92118492 -7.79448468 2.92118492 -5.375 1.1875 C-3 -0.125 -3 -0.125 0 0 Z M-8.9140625 6.83203125 C-11 7.875 -11 7.875 -14 8.875 C-14.5668146 21.73527256 -14.5668146 21.73527256 -8.75 32.75 C-5.25586304 35.45001492 -3.42224882 36.02490674 1 35.875 C5.30986596 34.13676677 8.18228772 32.13772577 10.72265625 28.21484375 C12.28828883 24.12121728 12.34010279 20.8276585 12.1875 16.5 C12.17396484 15.76394531 12.16042969 15.02789062 12.14648438 14.26953125 C12.11144869 12.47103257 12.05765288 10.67291578 12 8.875 C11.40832031 8.68164062 10.81664063 8.48828125 10.20703125 8.2890625 C9.41683594 8.02867188 8.62664063 7.76828125 7.8125 7.5 C6.98363281 7.23316406 6.15476562 6.96632813 5.30078125 6.69140625 C3 5.875 3 5.875 0.5 4.4375 C-3.20839704 3.60311067 -5.59764177 5.17382089 -8.9140625 6.83203125 Z " fill="#E8F7FC" transform="translate(40,18.125)"/>
<path d="M0 0 C5.94 0 11.88 0 18 0 C18 5.94 18 11.88 18 18 C16.72723717 16.09085576 15.4930135 14.15502251 14.3125 12.1875 C10.56460466 7.0214821 6.22280064 2.88569716 0 1 C0 0.67 0 0.34 0 0 Z " fill="#F8FDFD" transform="translate(59,0)"/>
</svg>
